<?xml version="1.0" standalone="no"?><!DOCTYPE svg PUBLIC "-//W3C//DTD SVG 1.1//EN" "http://www.w3.org/Graphics/SVG/1.1/DTD/svg11.dtd"><svg t="1587119808080" class="icon" viewBox="0 0 1024 1024" version="1.1" xmlns="http://www.w3.org/2000/svg" p-id="3138" width="32" height="32" xmlns:xlink="http://www.w3.org/1999/xlink"><defs><style type="text/css"></style></defs><path d="M511.251097 149.181472c48.928328 0 96.358849 9.585958 140.993467 28.458313 43.136811 18.273233 81.880059 44.335056 115.13135 77.586349 33.251292 33.251292 59.412969 71.994539 77.586348 115.13135 18.872355 44.634617 28.458313 92.065139 28.458313 140.993467s-9.585958 96.358849-28.458313 140.993466c-18.273233 43.136811-44.335056 81.880059-77.586348 115.131351-33.251292 33.251292-71.994539 59.412969-115.13135 77.586348-44.634617 18.872355-92.065139 28.458313-140.993467 28.458313s-96.358849-9.585958-140.993467-28.458313c-43.136811-18.273233-81.880059-44.335056-115.13135-77.586348-33.251292-33.251292-59.412969-71.994539-77.586348-115.131351-18.872355-44.634617-28.458313-92.065139-28.458313-140.993466s9.585958-96.358849 28.458313-140.993467c18.273233-43.136811 44.335056-81.880059 77.586348-115.13135 33.251292-33.251292 71.994539-59.412969 115.13135-77.586349 44.634617-18.872355 92.065139-28.458313 140.993467-28.458313m0-42.637542c-223.572501 0-404.707167 181.23452-404.707167 404.707167S287.678596 916.058118 511.251097 916.058118s404.707167-181.23452 404.707167-404.707167S734.823598 106.54393 511.251097 106.54393z" p-id="3139"></path><path d="M511.251097 468.713408c23.465627 0 42.637543 19.072062 42.637543 42.637543s-19.072062 42.637543-42.637543 42.637542c-23.465627 0-42.637543-19.072062-42.637543-42.637542s19.171916-42.637543 42.637543-42.637543m0-42.637543c-47.031107 0-85.175232 38.144125-85.175232 85.175232s38.144125 85.175232 85.175232 85.175232 85.175232-38.144125 85.175232-85.175232-38.144125-85.175232-85.175232-85.175232z" p-id="3140"></path><path d="M511.251097 276.994247c-11.78274 0-21.268844 9.585958-21.268844 21.268844v149.081619c0 11.78274 9.585958 21.268844 21.268844 21.268844 11.78274 0 21.268844-9.585958 21.268844-21.268844V298.263091c0-11.78274-9.486104-21.268844-21.268844-21.268844z" p-id="3141"></path></svg>